<svg width="10" height="16" viewBox="0 0 10 16" fill="none" xmlns="http://www.w3.org/2000/svg">
<path d="M8.73175 13.1614L8.73177 13.1614L8.72992 13.1596L4.33826 8.92799L4.33779 8.92753L3.38412 8.02067L8.72983 2.88262C8.84625 2.77073 8.94286 2.64437 9.00417 2.50293C9.06346 2.36617 9.10003 2.2158 9.10003 2.06316C9.10003 1.90719 9.07705 1.75402 9.00278 1.60967C8.94473 1.47658 8.8619 1.33906 8.75173 1.23317L8.75183 1.23307L8.74786 1.22963C8.63366 1.13085 8.50367 1.03911 8.3582 0.980851C8.21161 0.922145 8.04483 0.899999 7.89391 0.899999C7.73672 0.899999 7.5824 0.934857 7.43211 0.990414L7.4321 0.99038L7.42961 0.991378C7.28415 1.04963 7.15309 1.14176 7.04704 1.24369L0.848342 7.20159C0.739113 7.30657 0.65528 7.43378 0.595902 7.57075L0.595864 7.57074L0.594809 7.57337C0.53674 7.71849 0.500037 7.86816 0.500037 8.02105C0.500037 8.1737 0.536613 8.32406 0.595902 8.46083C0.65528 8.5978 0.739113 8.72501 0.848342 8.82999L7.04704 14.7879L7.04701 14.7879L7.04901 14.7897C7.27757 14.9978 7.57624 15.1 7.88296 15.1C8.19432 15.1 8.49273 14.9737 8.70792 14.7668C8.9342 14.5494 9.05569 14.2718 9.05623 13.9704C9.06776 13.6676 8.94617 13.3789 8.73175 13.1614Z" fill="#181725" stroke="#181725" stroke-width="0.2"/>
</svg>
