<svg width="16" height="9" viewBox="0 0 16 9" fill="none" xmlns="http://www.w3.org/2000/svg">
<path d="M13.2142 8.49219L13.2142 8.49221L13.2124 8.49035L8.98084 4.0987L8.98039 4.09822L8.07352 3.14456L2.93548 8.49026C2.82358 8.60668 2.69723 8.70329 2.55579 8.76461C2.41902 8.8239 2.26866 8.86047 2.11601 8.86047C1.96005 8.86047 1.80687 8.83749 1.66253 8.76322C1.52944 8.70516 1.39192 8.62234 1.28602 8.51217L1.28592 8.51226L1.28249 8.50829C1.1837 8.3941 1.09196 8.26411 1.03371 8.11864C0.975002 7.97205 0.952857 7.80527 0.952857 7.65434C0.952857 7.49716 0.987714 7.34284 1.04327 7.19255L1.04324 7.19254L1.04423 7.19005C1.10249 7.04459 1.19461 6.91353 1.29655 6.80747L7.25444 0.608778C7.35943 0.499549 7.48664 0.415716 7.62361 0.356338L7.62359 0.356301L7.62623 0.355245C7.77135 0.297176 7.92101 0.260474 8.07391 0.260474C8.22656 0.260474 8.37692 0.29705 8.51368 0.356338C8.65066 0.415716 8.77786 0.499549 8.88285 0.608778L14.8407 6.80747L14.8408 6.80745L14.8426 6.80944C15.0507 7.038 15.1529 7.33668 15.1529 7.64339C15.1529 7.95475 15.0265 8.25317 14.8197 8.46836C14.6022 8.69463 14.3247 8.81613 14.0233 8.81666C13.7204 8.8282 13.4318 8.70661 13.2142 8.49219Z" fill="#181725" stroke="#181725" stroke-width="0.2"/>
</svg>
